<svg id="Layer_1" data-name="Layer 1" xmlns="http://www.w3.org/2000/svg" viewBox="0 0 733 733"><defs><style>.cls-1{fill:#fe7f50;}.cls-2{fill:#f5f5f5;}</style></defs><circle id="Ellipse_23" data-name="Ellipse 23" class="cls-1" cx="366.5" cy="366.5" r="366.5"/><path id="Icon_ionic-ios-checkmark" data-name="Icon ionic-ios-checkmark" class="cls-2" d="M559.84,264.5l-30.1-31a6.49,6.49,0,0,0-4.79-2h0a6.23,6.23,0,0,0-4.79,2L311.51,443.74,235.57,367.8a6.61,6.61,0,0,0-9.35-.23l-.22.23-30.45,30.44a6.82,6.82,0,0,0-.11,9.64.57.57,0,0,1,.11.11l95.78,95.77c6.15,6.16,13.68,9.75,20,9.75,9.06,0,16.93-6.67,19.84-9.42h.18L560,274.23A7.29,7.29,0,0,0,559.84,264.5Z" transform="translate(-11.14 -6)"/></svg>