<svg id="Layer_1" data-name="Layer 1" xmlns="http://www.w3.org/2000/svg" viewBox="0 0 267.02 229.02"><defs><style>.cls-1{fill:#f47e52;}</style></defs><g id="Icon_ionic-ios-basket" data-name="Icon ionic-ios-basket"><path id="Path_53" data-name="Path 53" class="cls-1" d="M212.1,184.69h29.32l10.43-45H212.1Z" transform="translate(0.02 0.02)"/><path id="Path_54" data-name="Path 54" class="cls-1" d="M212.1,229h.29a23.66,23.66,0,0,0,22.83-17.6L238.8,196H212.09Z" transform="translate(0.02 0.02)"/><path id="Path_55" data-name="Path 55" class="cls-1" d="M139.09,195.9h61.8V229h-61.8Z" transform="translate(0.02 0.02)"/><path id="Path_56" data-name="Path 56" class="cls-1" d="M25.61,184.69H54.82v-45H15.18Z" transform="translate(0.02 0.02)"/><path id="Path_57" data-name="Path 57" class="cls-1" d="M66.08,76.32h61.8v52.19H66.08Z" transform="translate(0.02 0.02)"/><path id="Path_58" data-name="Path 58" class="cls-1" d="M139.09,76.32h61.8v52.19h-61.8Z" transform="translate(0.02 0.02)"/><path id="Path_59" data-name="Path 59" class="cls-1" d="M31.87,211.29A23.53,23.53,0,0,0,54.58,229h.29V195.9H28.24Z" transform="translate(0.02 0.02)"/><path id="Path_60" data-name="Path 60" class="cls-1" d="M66.08,195.9h61.8V229H66.08Z" transform="translate(0.02 0.02)"/><path id="Path_61" data-name="Path 61" class="cls-1" d="M139.09,139.72h61.8v45h-61.8Z" transform="translate(0.02 0.02)"/><path id="Path_62" data-name="Path 62" class="cls-1" d="M66.08,139.72h61.8v45H66.08Z" transform="translate(0.02 0.02)"/><path id="Path_63" data-name="Path 63" class="cls-1" d="M257.45,76.32H228.9V19.07A19.14,19.14,0,0,0,209.84,0H57.14A19.14,19.14,0,0,0,38.07,19.07V76.32H9.52A9.56,9.56,0,0,0,.22,88L12,128.51H54.82V25a8.38,8.38,0,0,1,8.34-8.35H203.81A8.38,8.38,0,0,1,212.15,25V128.51h42.92L266.76,88a9.55,9.55,0,0,0-9.31-11.69Z" transform="translate(0.02 0.02)"/></g></svg>