<svg xmlns="http://www.w3.org/2000/svg" viewBox="0 0 51 51"><defs><style>.cls-1{fill:#f47e52;}.cls-2{fill:none;stroke:#f47e52;stroke-width:4px;}.cls-3{fill:#fff;}</style></defs><g id="Layer_2" data-name="Layer 2"><g id="Layer_1-2" data-name="Layer 1"><g id="Ellipse_20" data-name="Ellipse 20"><circle class="cls-1" cx="25.5" cy="25.5" r="25.5"/><circle class="cls-2" cx="25.5" cy="25.5" r="23.5"/></g><path id="Icon_ionic-ios-checkmark" data-name="Icon ionic-ios-checkmark" class="cls-3" d="M38.27,18.44l-2-2.05a.46.46,0,0,0-.32-.13h0a.37.37,0,0,0-.31.13L21.88,30.26l-5-5a.44.44,0,0,0-.62,0h0l-2,2a.46.46,0,0,0,0,.64h0l6.32,6.31a2,2,0,0,0,1.32.65,2.12,2.12,0,0,0,1.31-.62h0L38.28,19.08A.49.49,0,0,0,38.27,18.44Z"/></g></g></svg>