<svg xmlns="http://www.w3.org/2000/svg" viewBox="0 0 409.69 484"><defs><style>.cls-1,.cls-3,.cls-5{fill:#fff;}.cls-1,.cls-2{stroke:#ef7d53;}.cls-1,.cls-2,.cls-5{stroke-miterlimit:10;stroke-width:8px;}.cls-2{fill:none;}.cls-4{fill:#ef7d53;}.cls-5{stroke:#f39200;}</style></defs><g id="Layer_1" data-name="Layer 1"><polygon class="cls-1" points="405.35 480 4.35 480 34.35 119 375.35 119 405.35 480"/><path class="cls-2" d="M630.11,229.5h-243c0-123.7,37.77-159.5,121.5-159.5S630.11,114.26,630.11,229.5Z" transform="translate(-303.77 -66)"/><rect class="cls-3" x="87.66" y="158.71" width="234.29" height="18"/><path class="cls-4" d="M567.12,430.18,478,452.93c9.1-18.54,13.8-29.22,38.42-35.5S551.33,418.18,567.12,430.18Z" transform="translate(-303.77 -66)"/><circle class="cls-4" cx="143.34" cy="288.14" r="14.29"/><circle class="cls-4" cx="266.36" cy="288.14" r="14.29"/><path class="cls-4" d="M632.58,322.77c3,8.34.35,28.38-14.42,29-10.27.41-18.34-15.74-14.43-29,4-13.66,14.43-25,14.43-25S627.89,309.91,632.58,322.77Z" transform="translate(-303.77 -66)"/><path class="cls-5" d="M79.2,439.51" transform="translate(-303.77 -66)"/></g></svg>