<svg id="Layer_1" data-name="Layer 1" xmlns="http://www.w3.org/2000/svg" viewBox="0 0 359.1 364.04"><defs><style>.cls-1{fill:#f5f5f5;}</style></defs><path id="Icon_metro-cross" data-name="Icon metro-cross" class="cls-1" d="M551.06,485.4h0L442.13,374.93,551.06,264.57h0a11.16,11.16,0,0,0,2.56-4.06,11.44,11.44,0,0,0-2.56-12L499.6,196.28a11.15,11.15,0,0,0-15.77-.1l-.09.1h0L374.82,306.71,265.87,196.28h0a11.15,11.15,0,0,0-15.77-.1l-.09.1-51.47,52.17a11.52,11.52,0,0,0,0,16.08h0L307.47,375,198.54,485.39h0a11.34,11.34,0,0,0-2.56,4.05,11.47,11.47,0,0,0,2.56,12L250,553.64a11.15,11.15,0,0,0,15.77.09l.09-.09h0l109-110.43L483.75,553.68h0a11.14,11.14,0,0,0,15.75.11l.11-.11,51.46-52.17a11.44,11.44,0,0,0,2.56-12,11.24,11.24,0,0,0-2.56-4.06Z" transform="translate(-195.26 -192.96)"/></svg>