<?xml version="1.0" encoding="utf-8"?>
<!-- Generator: Adobe Illustrator 25.2.1, SVG Export Plug-In . SVG Version: 6.00 Build 0)  -->
<svg version="1.1" id="Layer_1" xmlns="http://www.w3.org/2000/svg" xmlns:xlink="http://www.w3.org/1999/xlink" x="0px" y="0px"
	 viewBox="0 0 100 101.6" style="enable-background:new 0 0 100 101.6;" xml:space="preserve">
<style type="text/css">
	.st0{fill:#FE7F50;}
	.st1{fill:#FFFFFF;}
</style>
<path class="st0" d="M44,3.7C22.4,3.7,4.8,21.3,4.8,42.9S22.4,82.1,44,82.1c7,0,14-1.9,20.1-5.6l1.5-0.9l18,18
	c1.2,1.2,2.8,1.8,4.4,1.8c1.7,0,3.3-0.7,4.4-1.8c1.2-1.2,1.8-2.8,1.8-4.4s-0.7-3.3-1.8-4.4L74.9,67.2l1.6-2.3
	c4.4-6.5,6.7-14.1,6.7-21.9C83.2,21.3,65.6,3.7,44,3.7z M44,71.5c-15.8,0-28.6-12.8-28.6-28.6S28.2,14.3,44,14.3
	s28.6,12.8,28.6,28.6S59.8,71.5,44,71.5z"/>
<path class="st0" d="M66,37.9c-0.2-1-1.1-1.3-1.1-1.3L61,37l-3.5-8.2c-0.3-0.9-1.5-2.5-3.8-2.7H33.3h-0.1c-2.3,0.2-3.4,1.7-3.8,2.7
	L26,37l-3.7-0.4c0,0-0.8,0.2-1.1,1.3c-0.2,1-0.5,2.8,1.8,3.4l1.3,0.1c-1.6,3-3.2,8.3,1.1,12.7c0.1,0.1,1.2,0.9,1.7,1.1V58
	c0,1,0.8,1.8,1.8,1.8h2.4c1,0,1.8-0.8,1.8-1.8v-2.5H54V58c0,1,0.8,1.8,1.8,1.8h2.4c1,0,1.8-0.8,1.8-1.8v-2.6
	c0.7-0.2,1.2-0.6,1.7-1.1c4.4-4.4,3-9.7,1.5-12.8l1.1-0.1C66.5,40.8,66.3,39,66,37.9z M32.2,30L32.2,30L32.2,30
	c0.1-0.2,0.3-0.7,1.2-0.8h20.2c0.9,0.1,1.2,0.6,1.2,0.7l3.4,8.1H28.8L32.2,30z M30.7,48.2c-1.5,0-2.6-1.2-2.6-2.6
	c0-1.5,1.2-2.6,2.6-2.6c1.5,0,2.6,1.2,2.6,2.6S32.1,48.2,30.7,48.2z M56,48.2c-1.5,0-2.6-1.2-2.6-2.6c0-1.5,1.2-2.6,2.6-2.6
	c1.5,0,2.6,1.2,2.6,2.6S57.4,48.2,56,48.2z"/>
<path class="st1" d="M80.7,86.6l-8.9-9.3c-0.4-0.4-0.4-1.1,0-1.5l0,0c0.4-0.4,1.1-0.4,1.5,0l8.9,9.3c0.4,0.4,0.4,1.1,0,1.5l0,0
	C81.8,87,81.1,87,80.7,86.6z"/>
<path class="st1" d="M85,91.1l-1.1-1.2c-0.4-0.4-0.4-1.1,0-1.5l0,0c0.4-0.4,1.1-0.4,1.5,0l1.1,1.2c0.4,0.4,0.4,1.1,0,1.5l0,0
	C86.1,91.5,85.4,91.5,85,91.1z"/>
</svg>
